<svg version="1.1" xmlns="http://www.w3.org/2000/svg" xmlns:xlink="http://www.w3.org/1999/xlink" x="0px" y="0px" viewBox="0 0 1600 130" style={{enableBackground:"new 0 0 1600 130"}} xml:space="preserve" preserveAspectRatio="none"/><path className="st0" d="M1598.8,17.3c-127.3,40.6-264.8,62.8-408.9,65.9C1060.6,86,920.9,73.5,774.7,46c-37.5-7.1-74.5-12.4-113-16.4 c-110.4-12.7-223.5-13.3-336-1.8C215.9,39.1,106.5,61.9,0.6,95.5l-0.3,0.1v38.1h1599.2V17.1L1598.8,17.3z"></path><path className="st1" d="M1599.9,54.5c-130.1,34.4-270,50.3-415.8,47.1c-133.7-2.9-274-21.8-417-56.1c-37.1-8.9-73.8-16.1-112-22 C545,5.2,433.5-1.3,323.7,4.1C215.8,9.4,106.9,26.4-0.1,54.5l-0.4,0.1v77.2h1601V54.4L1599.9,54.5z"></path>
 </svg> 