<?xml version="1.0"?>
<svg xmlns="http://www.w3.org/2000/svg" xmlns:xlink="http://www.w3.org/1999/xlink" xmlns:svgjs="http://svgjs.com/svgjs" version="1.1" width="512" height="512" x="0" y="0" viewBox="0 0 512 512" style="enable-background:new 0 0 512 512" xml:space="preserve" class=""><g><script/><path xmlns="http://www.w3.org/2000/svg" d="m256 120c8.277344 0 15 6.722656 15 15s-6.722656 15-15 15c-5.347656 0-10.328125-2.871094-13.007812-7.515625-4.144532-7.164063-13.316407-9.667969-20.492188-5.464844-7.164062 4.148438-9.625 13.316407-5.464844 20.496094 5.398438 9.34375 14.066406 16.007813 23.964844 19.554687v16.726563c0 8.292969 6.710938 15 15 15s15-6.707031 15-15v-16.5625c17.421875-6.210937 30-22.707031 30-42.234375 0-24.816406-20.1875-45-45-45-8.277344 0-15-6.726562-15-15 0-8.277344 6.722656-15 15-15 5.347656 0 10.328125 2.871094 13.007812 7.515625 4.117188 7.144531 13.242188 9.605469 20.492188 5.460937 7.164062-4.144531 9.625-13.3125 5.464844-20.492187-5.398438-9.34375-14.066406-16.011719-23.964844-19.554687v-17.929688c0-8.289062-6.710938-15-15-15s-15 6.710938-15 15v17.761719c-17.421875 6.214843-30 22.707031-30 42.238281 0 24.8125 20.1875 45 45 45zm0 0" fill="#ffffff" data-original="#000000" style="" class=""/><path xmlns="http://www.w3.org/2000/svg" d="m316 302c0-33.089844-26.910156-60-60-60s-60 26.910156-60 60 26.910156 60 60 60 60-26.910156 60-60zm0 0" fill="#ffffff" data-original="#000000" style="" class=""/><path xmlns="http://www.w3.org/2000/svg" d="m496 332c0-33.089844-26.910156-60-60-60s-60 26.910156-60 60 26.910156 60 60 60 60-26.910156 60-60zm0 0" fill="#ffffff" data-original="#000000" style="" class=""/><path xmlns="http://www.w3.org/2000/svg" d="m136 362c0-33.089844-26.910156-60-60-60s-60 26.910156-60 60 26.910156 60 60 60 60-26.910156 60-60zm0 0" fill="#ffffff" data-original="#000000" style="" class=""/><path xmlns="http://www.w3.org/2000/svg" d="m76 422c-41.351562 0-76 33.648438-76 75 0 8.289062 6.710938 15 15 15h121c8.289062 0 15-6.710938 15-15 0-41.351562-33.648438-75-75-75zm0 0" fill="#ffffff" data-original="#000000" style="" class=""/><path xmlns="http://www.w3.org/2000/svg" d="m436 392c-41.351562 0-75 33.648438-75 75 0-57.890625-47.109375-105-105-105s-105 47.109375-105 105v30c0 8.289062 6.710938 15 15 15h180c8.289062 0 15-6.710938 15-15 0 8.289062 6.710938 15 15 15h121c8.289062 0 15-6.710938 15-15v-30c0-41.351562-34.648438-75-76-75zm0 0" fill="#ffffff" data-original="#000000" style="" class=""/></g></svg>
